<svg version="1.1" xmlns="http://www.w3.org/2000/svg" x="0px" y="0px"
	 viewBox="0 0 20.1 20.1" style="enable-background:new 0 0 20.1 20.1;" xml:space="preserve">
<path class="fill" d="M10,1.1c-3.7,0-6.8,3-6.8,6.8c0,6.3,5.3,10,6.8,10.9c1.5-0.9,6.8-4.6,6.8-10.9C16.8,4.2,13.8,1.1,10,1.1z M10,11.7
	c-2.1,0-3.8-1.7-3.8-3.8S7.9,4.1,10,4.1c2.1,0,3.8,1.7,3.8,3.8S12.1,11.7,10,11.7z"/>
<path class="stroke" style="fill:none; stroke-miterlimit:10" d="M10,1.1c-3.7,0-6.8,3-6.8,6.8c0,6.3,5.3,10,6.8,10.9c1.5-0.9,6.8-4.6,6.8-10.9C16.8,4.2,13.8,1.1,10,1.1z
	 M10,11.7c-2.1,0-3.8-1.7-3.8-3.8S7.9,4.1,10,4.1c2.1,0,3.8,1.7,3.8,3.8S12.1,11.7,10,11.7z"/>
</svg>
