<svg xmlns="http://www.w3.org/2000/svg" viewBox="0 0 20 20">
<path class="fill" d="M18,11.9c-0.8,1.2-1.8,2.5-3.2,3.7c-2.3,2-4.5,3.3-4.6,3.3c-0.1,0-0.2,0.1-0.2,0.1h0c-0.1,0-0.2,0-0.2-0.1
	c-0.1-0.1-2.3-1.3-4.6-3.3c-1.3-1.2-2.4-2.4-3.2-3.7c-1-1.6-1.5-3.1-1.5-4.7C0.5,4.3,2.9,2,5.8,2c1,0,2,0.4,2.9,1
	c0.5,0.4,1,0.9,1.3,1.4c0.3-0.5,0.8-1,1.3-1.4c0.9-0.7,2-1,2.9-1c2.9,0,5.2,2.4,5.2,5.2C19.5,8.7,19,10.3,18,11.9z"/>
<path class="stroke" d="M14.2,3c2.3,0,4.2,1.9,4.2,4.2c0,1.3-0.4,2.7-1.3,4.1c-0.7,1.2-1.7,2.3-3,3.5c-1.8,1.6-3.5,2.7-4.2,3.1
	c-0.6-0.4-2.4-1.5-4.2-3.1c-1.3-1.1-2.3-2.3-3-3.5C1.9,9.9,1.5,8.5,1.5,7.2C1.5,4.9,3.4,3,5.8,3c0.8,0,1.6,0.3,2.3,0.8
	c0.4,0.3,0.8,0.7,1.1,1.1L10,6.2l0.8-1.2c0.3-0.4,0.6-0.8,1.1-1.1C12.6,3.3,13.5,3,14.2,3 M14.2,2c-1,0-2,0.4-2.9,1
	c-0.5,0.4-1,0.9-1.3,1.4C9.7,3.9,9.2,3.4,8.7,3c-0.9-0.7-2-1-2.9-1C2.9,2,0.5,4.3,0.5,7.2c0,1.5,0.5,3.1,1.5,4.7
	c0.8,1.2,1.8,2.5,3.2,3.7c2.3,2,4.5,3.3,4.6,3.3c0.1,0,0.2,0.1,0.2,0.1h0c0.1,0,0.2,0,0.2-0.1c0.1-0.1,2.3-1.3,4.6-3.3
	c1.3-1.2,2.4-2.4,3.2-3.7c1-1.6,1.5-3.1,1.5-4.7C19.5,4.3,17.1,2,14.2,2L14.2,2z"/>
</svg>
