<?xml version="1.0" encoding="utf-8"?>
<!-- Generator: Adobe Illustrator 22.1.0, SVG Export Plug-In . SVG Version: 6.00 Build 0)  -->
<svg version="1.1" id="Layer_1" xmlns="http://www.w3.org/2000/svg" xmlns:xlink="http://www.w3.org/1999/xlink" x="0px" y="0px"
	 viewBox="0 0 503.5 503.5" style="enable-background:new 0 0 503.5 503.5;" xml:space="preserve">
<style type="text/css">
	.st0{fill:#ECF4F7;}
	.st1{fill:#51565F;}
</style>
<path class="st0" d="M216.5,146c-30.2,0-60.4,7.6-60.4,30.2s-40.3,35.2-40.3,60.4s47.8,47.8,47.8,60.4s-22.7,7.6-22.7,30.2
	s35.2,30.2,50.4,30.2s95.7,0,115.8,0c20.1,0,35.2-12.6,35.2-30.2s-20.1-17.6-20.1-30.2c0-12.6,68-25.2,68-60.4
	c0-40.3-45.3-90.6-83.1-90.6S246.7,146,216.5,146z"/>
<path class="st1" d="M317.2,360H186.3c-1.5,0-2.5-1-2.5-2.5c0-1.5,1-2.5,2.5-2.5h130.9c1.5,0,2.5,1,2.5,2.5
	C319.7,359,318.7,360,317.2,360z M347.4,329.8H246.7c-1.5,0-2.5-1-2.5-2.5s1-2.5,2.5-2.5h100.7c1.5,0,2.5,1,2.5,2.5
	C349.9,328.8,348.9,329.8,347.4,329.8z M226.6,329.8h-90.6c-1.5,0-2.5-1-2.5-2.5s1-2.5,2.5-2.5h90.6c1.5,0,2.5,1,2.5,2.5
	C229.1,328.8,228.1,329.8,226.6,329.8z M327.3,299.6H216.5c-1.5,0-2.5-1-2.5-2.5c0-1.5,1-2.5,2.5-2.5h110.8c1.5,0,2.5,1,2.5,2.5
	C329.8,298.6,328.8,299.6,327.3,299.6z M196.3,299.6h-40.3c-1.5,0-2.5-1-2.5-2.5c0-1.5,1-2.5,2.5-2.5h40.3c1.5,0,2.5,1,2.5,2.5
	C198.9,298.6,197.9,299.6,196.3,299.6z M377.6,269.4H266.8c-1.5,0-2.5-1-2.5-2.5c0-1.5,1-2.5,2.5-2.5h110.8c1.5,0,2.5,1,2.5,2.5
	C380.1,268.4,379.1,269.4,377.6,269.4z M246.7,269.4H135.9c-1.5,0-2.5-1-2.5-2.5c0-1.5,1-2.5,2.5-2.5h110.8c1.5,0,2.5,1,2.5,2.5
	C249.2,268.4,248.2,269.4,246.7,269.4z M397.8,239.1H186.3c-1.5,0-2.5-1-2.5-2.5s1-2.5,2.5-2.5h211.5c1.5,0,2.5,1,2.5,2.5
	S399.3,239.1,397.8,239.1z M166.1,239.1h-60.4c-1.5,0-2.5-1-2.5-2.5s1-2.5,2.5-2.5h60.4c1.5,0,2.5,1,2.5,2.5
	S167.6,239.1,166.1,239.1z M347.4,208.9h-40.3c-1.5,0-2.5-1-2.5-2.5s1-2.5,2.5-2.5h40.3c1.5,0,2.5,1,2.5,2.5
	C349.9,207.9,348.9,208.9,347.4,208.9z M287,208.9H125.8c-1.5,0-2.5-1-2.5-2.5s1-2.5,2.5-2.5H287c1.5,0,2.5,1,2.5,2.5
	C289.5,207.9,288.5,208.9,287,208.9z M357.5,178.7H246.7c-1.5,0-2.5-1-2.5-2.5s1-2.5,2.5-2.5h110.8c1.5,0,2.5,1,2.5,2.5
	C360,177.7,359,178.7,357.5,178.7z M226.6,178.7h-70.5c-1.5,0-2.5-1-2.5-2.5s1-2.5,2.5-2.5h70.5c1.5,0,2.5,1,2.5,2.5
	C229.1,177.7,228.1,178.7,226.6,178.7z M337.3,148.5H206.4c-1.5,0-2.5-1-2.5-2.5c0-1.5,1-2.5,2.5-2.5h130.9c1.5,0,2.5,1,2.5,2.5
	C339.9,147.5,338.9,148.5,337.3,148.5z"/>
</svg>
